<?xml version="1.0" encoding="UTF-8"?>
<svg xmlns="http://www.w3.org/2000/svg" xmlns:xlink="http://www.w3.org/1999/xlink" width="128" height="128" viewBox="0 0 128 128">
<path fill="none" stroke-width="10.24" stroke-linecap="round" stroke-linejoin="round" stroke="currentColor" stroke-opacity="1" stroke-miterlimit="10" d="M 108.644531 8.191406 C 114.8125 8.191406 119.808594 13.1875 119.808594 19.355469 L 119.808594 108.644531 C 119.808594 114.8125 114.8125 119.808594 108.644531 119.808594 L 19.355469 119.808594 C 13.1875 119.808594 8.191406 114.8125 8.191406 108.644531 L 8.191406 19.355469 C 8.191406 13.1875 13.1875 8.191406 19.355469 8.191406 Z M 108.644531 8.191406 "/>
<path fill-rule="nonzero" fill="currentColor" fill-opacity="1" d="M 69.582031 24.933594 C 75.746094 24.933594 80.742188 29.929688 80.742188 36.097656 L 80.742188 69.582031 C 80.742188 75.746094 75.746094 80.742188 69.582031 80.742188 L 36.097656 80.742188 C 29.929688 80.742188 24.933594 75.746094 24.933594 69.582031 L 24.933594 36.097656 C 24.933594 29.929688 29.929688 24.933594 36.097656 24.933594 Z M 69.582031 24.933594 "/>
<path fill="none" stroke-width="10.24" stroke-linecap="round" stroke-linejoin="round" stroke="currentColor" stroke-opacity="1" stroke-miterlimit="10" d="M 86.324219 41.675781 C 92.488281 41.675781 97.484375 46.675781 97.484375 52.839844 L 97.484375 86.324219 C 97.484375 92.488281 92.488281 97.484375 86.324219 97.484375 L 52.839844 97.484375 C 46.675781 97.484375 41.675781 92.488281 41.675781 86.324219 L 41.675781 52.839844 C 41.675781 46.675781 46.675781 41.675781 52.839844 41.675781 Z M 86.324219 41.675781 "/>
</svg>
