<?xml version="1.0" encoding="UTF-8"?>
<svg xmlns="http://www.w3.org/2000/svg" xmlns:xlink="http://www.w3.org/1999/xlink" width="128" height="128" viewBox="0 0 128 128">
<path fill="none" stroke-width="10.24" stroke-linecap="round" stroke-linejoin="round" stroke="currentColor" stroke-opacity="1" stroke-miterlimit="10" d="M 108.644531 8.191406 C 114.8125 8.191406 119.808594 13.1875 119.808594 19.355469 L 119.808594 108.644531 C 119.808594 114.8125 114.8125 119.808594 108.644531 119.808594 L 19.355469 119.808594 C 13.1875 119.808594 8.191406 114.8125 8.191406 108.644531 L 8.191406 19.355469 C 8.191406 13.1875 13.1875 8.191406 19.355469 8.191406 Z M 108.644531 8.191406 "/>
<path fill-rule="nonzero" fill="currentColor" fill-opacity="1" stroke-width="10.24" stroke-linecap="round" stroke-linejoin="round" stroke="currentColor" stroke-opacity="1" stroke-miterlimit="10" d="M 49.488281 27.167969 C 52.570312 27.167969 55.070312 29.664062 55.070312 32.746094 L 55.070312 94.136719 C 55.070312 97.21875 52.570312 99.71875 49.488281 99.71875 L 38.328125 99.71875 C 35.246094 99.71875 32.746094 97.21875 32.746094 94.136719 L 32.746094 32.746094 C 32.746094 29.664062 35.246094 27.167969 38.328125 27.167969 Z M 49.488281 27.167969 "/>
<path fill-rule="nonzero" fill="currentColor" fill-opacity="1" stroke-width="10.24" stroke-linecap="round" stroke-linejoin="round" stroke="currentColor" stroke-opacity="1" stroke-miterlimit="10" d="M 89.671875 27.167969 C 92.753906 27.167969 95.253906 29.664062 95.253906 32.746094 L 95.253906 94.136719 C 95.253906 97.21875 92.753906 99.71875 89.671875 99.71875 L 78.511719 99.71875 C 75.429688 99.71875 72.929688 97.21875 72.929688 94.136719 L 72.929688 32.746094 C 72.929688 29.664062 75.429688 27.167969 78.511719 27.167969 Z M 89.671875 27.167969 "/>
</svg>
